<?xml version="1.0" encoding="UTF-8"?> <!-- Generator: Adobe Illustrator 17.0.0, SVG Export Plug-In . SVG Version: 6.00 Build 0) --> <svg xmlns="http://www.w3.org/2000/svg" xmlns:xlink="http://www.w3.org/1999/xlink" id="Слой_1" x="0px" y="0px" width="2267.72px" height="566.93px" viewBox="0 0 2267.72 566.93" xml:space="preserve"> <g> <linearGradient id="SVGID_1_" gradientUnits="userSpaceOnUse" x1="-194.0855" y1="-731.7273" x2="-194.0855" y2="-714.2692" gradientTransform="matrix(17.2321 0 0 17.2321 3551.1946 12750.25)"> <stop offset="0" style="stop-color:#0BD319"></stop> <stop offset="0.22" style="stop-color:#18D722"></stop> <stop offset="1" style="stop-color:#86FC6F"></stop> </linearGradient> <path fill="url(#SVGID_1_)" d="M357.112,374.913c0,36.99-29.983,66.972-66.97,66.972H123.242c-36.988,0-66.97-29.983-66.97-66.972 V208.015c0-36.988,29.983-66.97,66.97-66.97h166.899c36.988,0,66.97,29.983,66.97,66.97V374.913z"></path> <path display="none" fill="none" d="M277.758,240.279c-15.909-21.904-41.724-36.146-70.867-36.146 c-48.341,0-87.528,39.188-87.528,87.529s39.188,87.528,87.528,87.528c29.089,0,54.864-14.19,70.778-36.025"></path> </g> <g> <g> <path fill="#FFFFFF" d="M250.615,366.948c-0.192-0.147-0.063-0.328-0.111-0.584c-0.078-0.413-0.247-0.076-0.445-0.334 c-0.072-0.094,0-0.542,0-0.667c0-0.083,0.031-0.258,0-0.334c-0.074-0.182-0.118-0.045-0.222-0.185 c-0.051-0.068-0.062-0.196-0.111-0.259c-0.099-0.126-0.074-0.055-0.222-0.167c-0.168-0.126-0.138,0.029-0.222-0.167 c-0.037-0.085,0.013-0.241,0-0.334c-0.059-0.42-0.268-0.193-0.445-0.445c-0.051-0.073,0.054-0.263,0-0.334 c-0.052-0.067-0.265-0.031-0.334-0.083c-0.164-0.125-0.002-0.113-0.111-0.25c-0.098-0.123-0.075-0.057-0.222-0.167 c-0.074-0.018-0.148-0.037-0.222-0.056c0-0.037,0-0.074,0-0.111c0.035-0.101-0.002-0.151-0.111-0.148 c-0.037-0.012-0.074-0.025-0.111-0.037c-0.085-0.114-0.092-0.286-0.222-0.426h-0.778c0-0.148,0-0.296,0-0.445h-0.445 c0-0.148,0-0.296,0-0.445h-0.889c0-0.148,0-0.297,0-0.445h-1.223c0-0.111,0-0.222,0-0.333h-2.557c0-0.148,0-0.297,0-0.445h-1.334 c0,0.148,0,0.297,0,0.445h-2.557c0,0.111,0,0.222,0,0.333h-0.889c0,0.148,0,0.297,0,0.445h-0.778c0,0.148,0,0.296,0,0.445h-0.889 c0,0.148,0,0.297,0,0.445h-0.445c0,0.079,0.043,0.329,0,0.389c-0.051,0.072-0.264,0.054-0.333,0.111 c-0.076,0.063,0.006,0.16-0.111,0.25c-0.065,0.05-0.253,0.063-0.334,0.083c-0.315,0.079-0.388,0.033-0.445,0.334 c-0.018,0.095,0.038,0.246,0,0.334c-0.084,0.195-0.054,0.041-0.222,0.167c-0.147,0.11-0.124,0.044-0.222,0.167 c-0.109,0.138,0.053,0.125-0.111,0.25c-0.069,0.053-0.282,0.016-0.334,0.083c-0.054,0.07,0.054,0.264,0,0.334 c-0.198,0.257-0.367-0.08-0.445,0.333c-0.018,0.097,0.037,0.243,0,0.334c-0.074,0.182-0.118,0.046-0.222,0.185 c-0.158,0.212,0.002,0.443-0.111,0.704c-0.092,0.213-0.353,0.12-0.445,0.334c-0.067,0.155,0,0.495,0,0.667 c0,0.081,0.032,0.26,0,0.334c-0.084,0.195-0.054,0.041-0.222,0.167s-0.138-0.029-0.222,0.167c-0.032,0.073,0,0.253,0,0.334 c0,0.222,0,0.445,0,0.667c0,0.445,0,0.889,0,1.334c0,0.482,0,0.964,0,1.445c0,0.222,0,0.445,0,0.667c0,0.081-0.032,0.26,0,0.334 c0.084,0.196,0.054,0.041,0.222,0.167s0.138-0.029,0.222,0.167c0.032,0.073,0,0.253,0,0.333c0,0.126-0.072,0.573,0,0.667 c0.198,0.257,0.367-0.08,0.445,0.334c0.051,0.273-0.03,0.404,0.111,0.593c0.104,0.14,0.148,0.003,0.222,0.185 c0.031,0.076,0,0.25,0,0.333c0,0.428,0.066,0.212,0.334,0.417c0.216,0.165,0.005,0.337,0.111,0.584 c0.075,0.173,0.332,0.192,0.445,0.333c0.109,0.138-0.053,0.125,0.111,0.25c0.069,0.053,0.282,0.016,0.334,0.083 c0.054,0.07-0.054,0.264,0,0.334c0.052,0.067,0.265,0.031,0.334,0.083c0.164,0.125,0.002,0.113,0.111,0.25 c0.098,0.123,0.076,0.057,0.222,0.167c0.167,0.125,0.146-0.036,0.222,0.167c0.018,0.048,0,0.227,0,0.278h0.778 c0,0.111,0,0.222,0,0.334h0.445c0,0.148,0,0.296,0,0.445h0.889c0,0.148,0,0.297,0,0.445h0.778c0,0.148,0,0.297,0,0.445h1.668 c0,0.148,0,0.296,0,0.445h4.003c0-0.148,0-0.297,0-0.445h1.668c0-0.148,0-0.297,0-0.445h0.778c0-0.148,0-0.296,0-0.445h0.889 c0-0.148,0-0.296,0-0.445h0.889c0-0.111,0-0.222,0-0.334h0.445c0-0.078-0.025-0.206,0-0.278c0.07-0.198,0.114-0.039,0.222-0.185 c0.051-0.068,0.062-0.196,0.111-0.259c0.099-0.126,0.074-0.055,0.222-0.167c0.147-0.11,0.124-0.044,0.222-0.167 c0.109-0.138-0.053-0.125,0.111-0.25c0.069-0.053,0.282-0.016,0.334-0.083c0.054-0.07-0.054-0.264,0-0.333 c0.198-0.257,0.367,0.08,0.445-0.334c0.018-0.095-0.038-0.246,0-0.334c0.084-0.195,0.054-0.041,0.222-0.167 c0.149-0.111,0.124-0.041,0.222-0.167c0.049-0.063,0.06-0.191,0.111-0.259c0.104-0.14,0.148-0.003,0.222-0.185 c0.031-0.076,0-0.25,0-0.334c0-0.428,0.066-0.212,0.334-0.417c0.165-0.126,0.111-0.339,0.111-0.584 c0-0.244-0.054-0.457,0.111-0.584c0.268-0.205,0.334,0.011,0.334-0.417c0-0.852,0-1.705,0-2.557c0-0.889,0-1.779,0-2.668 C250.949,366.937,250.883,367.153,250.615,366.948z"></path> <path fill="#FFFFFF" d="M260.733,206.043c-0.073-0.104,0-0.534,0-0.667c0-0.081,0.032-0.26,0-0.334 c-0.084-0.195-0.054-0.041-0.222-0.167s-0.138,0.029-0.222-0.167c-0.032-0.073,0-0.253,0-0.334c0-0.428-0.066-0.212-0.334-0.417 c-0.164-0.125-0.002-0.113-0.111-0.25c-0.098-0.123-0.075-0.057-0.222-0.167c-0.074-0.018-0.148-0.037-0.222-0.056 c0-0.037,0-0.074,0-0.111c0.035-0.102-0.002-0.151-0.111-0.148c-0.037-0.012-0.074-0.025-0.111-0.037 c-0.106-0.143-0.111-0.199-0.111-0.426h-0.889c0-0.148,0-0.296,0-0.445h-0.889c0-0.148,0-0.297,0-0.445h-32.687 c0,0.148,0,0.296,0,0.445h-0.889c0,0.148,0,0.296,0,0.445h-0.889c0,0.078,0.025,0.206,0,0.278 c-0.07,0.198-0.114,0.039-0.222,0.185c-0.109-0.003-0.146,0.047-0.111,0.148c0,0.037,0,0.074,0,0.111 c-0.083,0.064-0.25,0.02-0.333,0.083c-0.164,0.125-0.002,0.113-0.111,0.25c-0.098,0.123-0.075,0.057-0.222,0.167 c-0.168,0.126-0.138-0.029-0.222,0.167c-0.032,0.073,0,0.253,0,0.334c0,0.428-0.066,0.212-0.334,0.417 c-0.165,0.126-0.111,0.339-0.111,0.584c0,0.408,0,0.815,0,1.223c0,0.445,0,0.889,0,1.334c0,0.222,0,0.445,0,0.667 c0,0.081-0.032,0.26,0,0.334c0.084,0.196,0.054,0.041,0.222,0.167c0.168,0.126,0.138-0.029,0.222,0.167 c0.038,0.088-0.018,0.239,0,0.334c0.078,0.413,0.247,0.076,0.445,0.333c0.054,0.07-0.054,0.264,0,0.334 c0.052,0.067,0.265,0.031,0.334,0.083c0.146,0.112,0.111,0.205,0.111,0.417h0.334c0,0.077-0.026,0.208,0,0.278 c0.075,0.204,0.056,0.042,0.222,0.167c0.167,0.125,0.146-0.036,0.222,0.167c0.018,0.048,0,0.227,0,0.278h0.889 c0,0.148,0,0.296,0,0.445h33.576c0-0.148,0-0.297,0-0.445h0.889c0-0.077-0.026-0.208,0-0.278c0.075-0.204,0.056-0.042,0.222-0.167 c0.167-0.125,0.146,0.036,0.222-0.167c0.018-0.048,0-0.227,0-0.278h0.778c0-0.192-0.035-0.423,0-0.612 c0.073-0.39,0.173-0.122,0.445-0.333c0.004-0.003,0.082-0.227,0.111-0.259c0.1-0.11,0.242-0.014,0.333-0.185 c0.072-0.134,0-0.511,0-0.667c0-0.21-0.039-0.461,0-0.667c0.078-0.413,0.247-0.076,0.445-0.334c0.123-0.16,0.03-1.12,0-1.334 C261.119,206.067,260.91,206.294,260.733,206.043z"></path> <path fill="#FFFFFF" d="M300.646,377.704c0-0.741,0-1.482,0-2.224c0-1.445,0-2.891,0-4.336c0-7.412,0-14.824,0-22.236 s0-14.824,0-22.236c0-7.412,0-14.824,0-22.236s0-14.824,0-22.236s0-14.824,0-22.236c0-7.412,0-14.824,0-22.236s0-14.824,0-22.236 c0-3.706,0-7.412,0-11.118c0-0.259,0-0.519,0-0.778c0-0.428-0.066-0.212-0.333-0.417c-0.226-0.173-0.111-0.915-0.111-1.251 c0-0.259,0-0.519,0-0.778c0-0.081,0.032-0.26,0-0.333c-0.084-0.196-0.054-0.041-0.222-0.167s-0.138,0.029-0.222-0.167 c-0.032-0.073,0-0.253,0-0.334c0-0.222,0-0.445,0-0.667c0-0.113,0.044-0.343,0-0.445c-0.084-0.196-0.054-0.041-0.222-0.167 c-0.168-0.126-0.138,0.029-0.222-0.167c-0.032-0.073,0-0.253,0-0.334c0-0.126,0.072-0.573,0-0.667 c-0.198-0.257-0.367,0.08-0.445-0.334c-0.043-0.227,0.091-0.569,0-0.778c-0.092-0.213-0.353-0.12-0.445-0.334 c-0.073-0.168,0.103-0.52,0-0.667c-0.133-0.189-0.43-0.015-0.334-0.389c0-0.236,0.048-0.406-0.111-0.528 c-0.186-0.142-0.424-0.01-0.333-0.361c0-0.148,0-0.297,0-0.445H297.2c0-0.111,0-0.222,0-0.333c0-0.148,0-0.297,0-0.445 c-0.25-0.094-0.53-0.116-0.445-0.445c-0.351-0.132-0.445-0.115-0.445-0.5c0-0.386-0.159-0.325-0.334-0.556 c0-0.074,0-0.148,0-0.222c-0.074-0.019-0.148-0.037-0.222-0.056c-0.147-0.11-0.124-0.044-0.222-0.167 c-0.109-0.138,0.053-0.125-0.111-0.25c-0.069-0.053-0.282-0.016-0.333-0.083c-0.163-0.212,0.124-0.514-0.111-0.695 c-0.177-0.136-0.243,0.015-0.334-0.195c-0.034-0.078,0.051-0.267,0-0.334c-0.071-0.092-0.351-0.038-0.445-0.111 c0-0.074,0-0.148,0-0.222c-0.037-0.012-0.074-0.025-0.111-0.037c-0.108-0.146-0.152,0.012-0.222-0.185 c-0.018-0.05,0-0.225,0-0.278h-0.445c0-0.077,0.026-0.208,0-0.278c-0.075-0.204-0.056-0.042-0.222-0.167 c-0.167-0.125-0.146,0.036-0.222-0.167c-0.018-0.048,0-0.227,0-0.278h-0.889c0-0.22,0.037-0.304-0.111-0.417 c-0.074-0.019-0.148-0.037-0.222-0.056c-0.11,0.011-0.147-0.036-0.111-0.139c0.035-0.102-0.002-0.151-0.111-0.148 c-0.074-0.025-0.148-0.049-0.222-0.074c-0.038-0.051,0-0.316,0-0.389h-0.445c0-0.148,0-0.296,0-0.445h-0.889 c0-0.148,0-0.297,0-0.445h-0.445c0.173-0.611-0.931-0.186-0.778-0.778h-0.889c0-0.148,0-0.297,0-0.445h-0.889 c0-0.148,0-0.296,0-0.445h-0.778c0-0.148,0-0.297,0-0.445h-1.334c0-0.148,0-0.297,0-0.445h-1.223 c0.094-0.332-0.199-0.353-0.445-0.445h-1.668c0-0.111,0-0.222,0-0.334h-81.161c0,0.111,0,0.222,0,0.334h-1.668 c0,0.148,0,0.297,0,0.445h-1.668c0,0.148,0,0.297,0,0.445h-0.889c0,0.148,0,0.296,0,0.445h-1.223c0,0.148,0,0.296,0,0.445h-0.889 c0,0.148,0,0.297,0,0.445h-0.889c0.087,0.308-0.111,0.202-0.222,0.352c-0.106,0.143-0.111,0.199-0.111,0.426h-0.889 c0,0.148,0,0.296,0,0.445h-0.445c0,0.148,0,0.296,0,0.445h-0.889c0,0.237-0.003,0.281-0.111,0.426 c-0.074,0.025-0.148,0.049-0.222,0.074c0,0.074,0,0.148,0,0.222c-0.097,0.075-0.368,0.018-0.445,0.111 c-0.037,0.045,0,0.32,0,0.389h-0.445c0,0.077,0.026,0.208,0,0.278c-0.076,0.204-0.056,0.042-0.222,0.167 c-0.167,0.125-0.146-0.036-0.222,0.167c-0.018,0.048,0,0.227,0,0.278h-0.778c0,0.137,0.079,0.62,0,0.723 c-0.073,0.095-0.372,0.016-0.445,0.111c-0.054,0.07,0.054,0.264,0,0.334c-0.073,0.095-0.372,0.016-0.445,0.111 c-0.054,0.07,0.054,0.264,0,0.334c-0.073,0.095-0.372,0.016-0.445,0.111c-0.054,0.07,0.054,0.264,0,0.334 c-0.073,0.095-0.372,0.016-0.445,0.111c-0.054,0.07,0.054,0.264,0,0.333c-0.226,0.293-0.445-0.093-0.445,0.445 c0,0.229-0.008,0.232-0.111,0.371c-0.057,0.077-0.167,0.111-0.222,0.185c-0.098,0.132,0.032,0.134-0.111,0.264 c-0.066,0.06-0.25,0.094-0.333,0.125c0,0.148,0,0.297,0,0.445c0.094,0.332-0.199,0.353-0.445,0.445c0,0.111,0,0.222,0,0.333 h-0.445c0,0.148,0,0.297,0,0.445c0.109,0.383-0.349,0.305-0.445,0.611c-0.129,0.416,0.134,0.489-0.334,0.723 c0,0.244,0.095,0.724,0,0.945c-0.097,0.226-0.313,0.052-0.445,0.222c-0.047,0.061,0,0.363,0,0.445 c0,0.338-0.003,0.225-0.222,0.389c-0.213,0.16-0.167-0.015-0.222,0.278c-0.052,0.274,0,0.61,0,0.889 c0,0.229,0.043,0.355-0.111,0.473c-0.177,0.136-0.243-0.015-0.334,0.195c-0.101,0.234,0,0.742,0,1.001c0,0.104,0.06,0.478,0,0.556 c-0.073,0.095-0.372,0.016-0.445,0.111c-0.097,0.126,0,0.721,0,0.889c0,2.594,0,5.188,0,7.783c0,7.412,0,14.824,0,22.236 s0,14.824,0,22.236c0,7.412,0,14.824,0,22.236s0,14.824,0,22.236c0,7.412,0,14.824,0,22.236s0,14.824,0,22.236s0,14.824,0,22.236 c0,3.706,0,7.412,0,11.118c0,0.927,0,1.853,0,2.779c0,0.374-0.146,1.108,0,1.445c0.092,0.213,0.353,0.12,0.445,0.333 c0.067,0.155,0,0.495,0,0.667c0,0.201-0.078,0.597,0,0.778c0.092,0.213,0.353,0.12,0.445,0.333c0.158,0.365-0.186,0.985,0,1.334 c0.099,0.185,0.352,0.091,0.445,0.222c0.033,0.047,0,0.274,0,0.334c0,0.081-0.032,0.26,0,0.334 c0.084,0.196,0.054,0.041,0.222,0.167s0.138-0.029,0.222,0.167c0.032,0.073,0,0.253,0,0.333c0,0.204,0,0.408,0,0.612 c0.467,0.234,0.204,0.307,0.334,0.723c0.097,0.311,0.544,0.226,0.445,0.612c0,0.111,0,0.222,0,0.334 c0.25,0.094,0.53,0.116,0.445,0.445c0.25,0.094,0.53,0.116,0.445,0.445c0,0.148,0,0.297,0,0.445 c0.084,0.031,0.268,0.065,0.333,0.125c0.109,0.001,0.146,0.052,0.111,0.153c-0.035,0.102,0.002,0.151,0.111,0.148 c0.074,0.025,0.148,0.049,0.222,0.074c0.074,0.105-0.024,0.426,0,0.556c0.055,0.293,0.009,0.118,0.222,0.278 c0.147,0.11,0.124,0.044,0.222,0.167c0,0.074,0,0.148,0,0.222c0.073,0.095,0.372,0.016,0.445,0.111 c0.054,0.07-0.054,0.264,0,0.334c0.074,0.019,0.148,0.037,0.222,0.056c0.074,0.019,0.148,0.037,0.222,0.056 c0,0.074,0,0.148,0,0.222c0.126,0.158,0.262,0.084,0.445,0.222c0,0.074,0,0.148,0,0.222c0.074,0.019,0.148,0.037,0.222,0.056 c0.149,0.111,0.124,0.041,0.222,0.167c0,0.074,0,0.148,0,0.222c0.064,0.091,0.267,0.135,0.334,0.222 c0.11,0.145-0.056,0.122,0.111,0.25c0.074,0.019,0.148,0.037,0.222,0.056c0.179,0.137-0.008,0.206,0.111,0.361 c0.074,0.096,0.367,0.018,0.445,0.111c0.037,0.045,0,0.32,0,0.389h0.445c-0.082,0.289,0.069,0.218,0.222,0.334 c0.074,0.018,0.148,0.037,0.222,0.056c0,0.074,0,0.148,0,0.222c0.072,0.096,0.259,0.123,0.334,0.222c0.038,0.051,0,0.316,0,0.389 h0.889c0,0.148,0,0.297,0,0.445h0.445c0,0.148,0,0.296,0,0.445h0.889c0,0.237,0.003,0.281,0.111,0.426 c0.112,0.15,0.299,0.058,0.222,0.352h0.889c0,0.148,0,0.297,0,0.445h0.889c0,0.148,0,0.297,0,0.445h1.223c0,0.148,0,0.296,0,0.445 h0.889c0,0.148,0,0.296,0,0.445h1.668c0,0.111,0,0.222,0,0.334h1.668c0,0.148,0,0.296,0,0.445h81.161c0-0.148,0-0.296,0-0.445 h2.112c0-0.111,0-0.222,0-0.334h1.223c0-0.148,0-0.296,0-0.445h1.334c0-0.148,0-0.297,0-0.445h0.778c0-0.148,0-0.297,0-0.445 h0.889c0-0.148,0-0.296,0-0.445h0.889c-0.103-0.363,0.15-0.221,0.334-0.361c0.146-0.112,0.111-0.205,0.111-0.417h0.778 c0-0.148,0-0.296,0-0.445h0.889c0-0.148,0-0.297,0-0.445h0.445c0-0.237,0.003-0.281,0.111-0.426 c0.074-0.025,0.148-0.049,0.222-0.074c0-0.074,0-0.148,0-0.222c0.137-0.175,0.536-0.147,0.445-0.5h0.778 c0.157-0.169,0.071-0.301,0.222-0.417c0.159-0.122,0.225-0.058,0.334-0.195c0-0.074,0-0.148,0-0.222 c0.074-0.018,0.148-0.037,0.222-0.056c0.074-0.019,0.148-0.037,0.222-0.056c0-0.074,0-0.148,0-0.222 c0.09-0.119,0.243-0.214,0.334-0.334c0-0.074,0-0.148,0-0.222c0.074-0.019,0.148-0.037,0.222-0.056 c0.213-0.16,0.167,0.015,0.222-0.278c0.018-0.097-0.058-0.369,0-0.445c0.052-0.067,0.265-0.031,0.334-0.083 c0.11,0.011,0.147-0.036,0.111-0.139c0-0.074,0-0.148,0-0.222c0.074-0.018,0.148-0.037,0.222-0.056 c0.074-0.019,0.148-0.037,0.222-0.056c0-0.074,0-0.148,0-0.222c0.109-0.136,0.175-0.073,0.334-0.195 c0.131-0.101,0.124-0.267,0.222-0.398c0.144-0.194,0.168,0,0.222-0.297c0.019-0.105-0.058-0.358,0-0.445 c0.049-0.072,0.359-0.135,0.445-0.167c-0.094-0.332,0.199-0.353,0.445-0.445c0-0.148,0-0.296,0-0.445 c-0.094-0.332,0.199-0.353,0.445-0.445c0-0.111,0-0.222,0-0.334c-0.103-0.363,0.15-0.221,0.333-0.361 c0.158-0.121,0.111-0.297,0.111-0.528c-0.087-0.308,0.111-0.202,0.222-0.352c0.114-0.154,0.111-0.233,0.111-0.482 c0-0.338,0.003-0.225,0.222-0.389s0.222-0.051,0.222-0.389c0-0.175-0.032-0.385,0-0.556c0.066-0.349,0.087-0.117,0.334-0.306 c0.243-0.186,0.05-0.702,0.111-1.028c0.066-0.349,0.087-0.117,0.334-0.306c0.154-0.118,0.111-0.243,0.111-0.472 c0-0.211-0.121-0.954,0-1.112c0.131-0.171,0.347,0.003,0.445-0.222c0.056-0.129,0-0.413,0-0.556c0-0.371,0-0.741,0-1.112 c0-0.143-0.056-0.427,0-0.556c0.097-0.226,0.313-0.052,0.445-0.222C300.768,378.659,300.646,377.915,300.646,377.704z M284.414,387.155c-0.076,0.204-0.056,0.042-0.222,0.167c-0.167,0.125-0.146-0.036-0.222,0.167c-0.018,0.048,0,0.227,0,0.278 h-0.889c0,0.111,0,0.222,0,0.334h-0.778c0,0.148,0,0.296,0,0.445h-0.889c0,0.148,0,0.296,0,0.445h-1.668c0,0.148,0,0.297,0,0.445 h-77.604c0-0.148,0-0.296,0-0.445h-1.223c0-0.148,0-0.296,0-0.445h-1.334c0-0.148,0-0.297,0-0.445h-0.778c0-0.111,0-0.222,0-0.334 h-0.889c0-0.22,0.037-0.304-0.111-0.417c-0.069-0.053-0.282-0.016-0.334-0.083c0-0.074,0-0.148,0-0.222 c-0.098-0.123-0.075-0.057-0.222-0.167c-0.074-0.018-0.148-0.037-0.222-0.056c-0.037-0.045,0-0.32,0-0.389h-0.778 c0-0.077,0.026-0.208,0-0.278c-0.075-0.204-0.056-0.042-0.222-0.167c-0.074-0.019-0.148-0.037-0.222-0.056 c0-0.037,0-0.074,0-0.111c0.036-0.103-0.001-0.15-0.111-0.139c-0.069-0.053-0.282-0.016-0.334-0.083 c-0.054-0.07,0.054-0.264,0-0.333c-0.131-0.171-0.347,0.003-0.445-0.222c-0.073-0.168,0.103-0.52,0-0.667 c-0.054-0.077-0.279-0.034-0.334-0.111c0-0.074,0-0.148,0-0.222c-0.099-0.126-0.074-0.055-0.222-0.167 c-0.147-0.11-0.124-0.044-0.222-0.167c-0.109-0.137,0.053-0.125-0.111-0.25c-0.074-0.019-0.148-0.037-0.222-0.056 c-0.216-0.165-0.005-0.337-0.111-0.584c-0.097-0.226-0.313-0.052-0.445-0.222c-0.105-0.136,0.07-0.506,0-0.667 c-0.098-0.226-0.313-0.052-0.445-0.222c-0.223-0.29,0.199-0.902-0.111-1.14c-0.247-0.189-0.268,0.043-0.334-0.306 c-0.032-0.171,0-0.381,0-0.556c0-0.083,0.031-0.258,0-0.334c-0.074-0.182-0.118-0.045-0.222-0.185 c-0.114-0.154-0.111-0.233-0.111-0.482c0-0.408,0-0.815,0-1.223c0-0.778,0-1.557,0-2.335c0-1.594,0-3.187,0-4.781 c0-7.412,0-14.824,0-22.236s0-14.824,0-22.236c0-7.412,0-14.824,0-22.236s0-14.824,0-22.236s0-14.824,0-22.236 c0-7.412,0-14.824,0-22.236s0-14.824,0-22.236c0-3.706,0-7.412,0-11.118c0-0.291-0.027-0.518,0.111-0.704 c0.104-0.14,0.148-0.003,0.222-0.185c0.031-0.076,0-0.25,0-0.333c0-0.172-0.067-0.512,0-0.667c0.092-0.213,0.353-0.12,0.445-0.333 c0.091-0.21-0.043-0.552,0-0.778c0.078-0.413,0.247-0.076,0.445-0.334c0.105-0.136-0.07-0.506,0-0.667 c0.092-0.213,0.353-0.12,0.445-0.333c0.115-0.266-0.121-0.517,0.111-0.695c0.084-0.064,0.25-0.02,0.334-0.083 c0.062-0.047,0.007-0.171,0.111-0.25c0.082-0.063,0.255-0.016,0.333-0.083c0.054-0.046-0.042-0.273,0-0.334 c0.054-0.077,0.279-0.034,0.334-0.111c0.033-0.047,0-0.274,0-0.334c0-0.081-0.047-0.384,0-0.445 c0.052-0.067,0.265-0.031,0.334-0.083c0.164-0.125,0.002-0.113,0.111-0.25c0.098-0.123,0.076-0.057,0.222-0.167 c0.147-0.11,0.124-0.044,0.222-0.167c0.109-0.138-0.053-0.125,0.111-0.25c0.186-0.142,0.424-0.01,0.334-0.361h0.778 c0-0.22-0.037-0.304,0.111-0.417c0.069-0.053,0.282-0.016,0.333-0.083c0-0.074,0-0.148,0-0.222 c0.098-0.123,0.076-0.057,0.222-0.167c0.074-0.019,0.148-0.037,0.222-0.056c0.037-0.045,0-0.32,0-0.389h0.889 c0-0.148,0-0.297,0-0.445h0.778c0-0.111,0-0.222,0-0.333h1.334c0-0.148,0-0.297,0-0.445h1.223c0-0.148,0-0.296,0-0.445h77.604 c0,0.148,0,0.297,0,0.445h1.668c0,0.148,0,0.297,0,0.445h0.889c0,0.111,0,0.222,0,0.333h0.778c0,0.148,0,0.297,0,0.445h0.889 c0,0.077-0.026,0.208,0,0.278c0.075,0.204,0.056,0.042,0.222,0.167c0.167,0.125,0.146-0.036,0.222,0.167 c0.018,0.048,0,0.227,0,0.278h0.778c0,0.077-0.026,0.208,0,0.278c0.075,0.204,0.056,0.042,0.222,0.167 c0.074,0.018,0.148,0.037,0.222,0.056c0,0.037,0,0.074,0,0.111c-0.036,0.103,0.001,0.15,0.111,0.139 c0.037,0.009,0.074,0.018,0.111,0.028c0.147,0.11,0.124,0.044,0.222,0.167c0.109,0.138-0.053,0.125,0.111,0.25 c0.069,0.053,0.282,0.016,0.333,0.083c0.054,0.07-0.054,0.264,0,0.334c0.052,0.067,0.265,0.031,0.334,0.083 c0.164,0.125,0.002,0.113,0.111,0.25c0.113,0.142,0.37,0.16,0.445,0.334c0.073,0.168-0.103,0.52,0,0.667 c0.051,0.072,0.264,0.054,0.334,0.111c0.076,0.063-0.006,0.16,0.111,0.25c0.268,0.205,0.334-0.011,0.334,0.417 c0,0.081-0.032,0.26,0,0.334c0.084,0.195,0.054,0.041,0.222,0.167s0.138-0.029,0.222,0.167c0.032,0.073,0,0.253,0,0.334 c0,0.428,0.066,0.212,0.334,0.417c0.216,0.165,0.005,0.337,0.111,0.584c0.092,0.213,0.353,0.12,0.445,0.334 c0.067,0.155,0,0.495,0,0.667c0,0.083-0.031,0.258,0,0.334c0.074,0.182,0.118,0.046,0.222,0.185 c0.126,0.17,0.111,0.323,0.111,0.593c0,0.222,0,0.445,0,0.667c0,0.43-0.06,0.909,0,1.334c0.02,0.141,0.034,0.558,0.111,0.667 c0.054,0.077,0.279,0.034,0.334,0.111c0.033,0.047,0,0.274,0,0.334c0,0.445,0,0.889,0,1.334c0,1.742,0,3.484,0,5.225 c0,7.412,0,14.824,0,22.236c0,7.412,0,14.824,0,22.236c0,7.412,0,14.824,0,22.236s0,14.824,0,22.236c0,7.412,0,14.824,0,22.236 s0,14.824,0,22.236s0,14.824,0,22.236c0,1.853,0,3.706,0,5.559c0,0.482,0,0.964,0,1.445c0,0.21,0.038,0.461,0,0.667 c-0.054,0.293-0.193,0.239-0.334,0.445c-0.228,0.332-0.111,1.023-0.111,1.445c0,0.445,0,0.889,0,1.334 c0,0.229-0.008,0.232-0.111,0.371c-0.104,0.14-0.148,0.003-0.222,0.185c-0.066,0.161,0,0.491,0,0.667c0,0.081,0.032,0.26,0,0.334 c-0.084,0.195-0.054,0.041-0.222,0.167s-0.138-0.029-0.222,0.167c-0.038,0.088,0.018,0.239,0,0.334 c-0.055,0.293-0.009,0.118-0.222,0.278c-0.168,0.126-0.138-0.029-0.222,0.167c-0.07,0.161,0.105,0.531,0,0.667 c-0.198,0.257-0.367-0.08-0.445,0.333c-0.018,0.095,0.038,0.246,0,0.334c-0.084,0.196-0.054,0.041-0.222,0.167 c-0.074,0.018-0.148,0.037-0.222,0.056c0,0.074,0,0.148,0,0.222c-0.052,0.069-0.169,0.113-0.222,0.185 c-0.141,0.189-0.06,0.32-0.111,0.593c-0.078,0.413-0.247,0.076-0.445,0.334c-0.054,0.07,0.054,0.264,0,0.334 c-0.052,0.067-0.265,0.031-0.334,0.083c-0.179,0.137,0.008,0.206-0.111,0.361c-0.052,0.067-0.265,0.031-0.333,0.083 c-0.104,0.08-0.049,0.203-0.111,0.25c-0.084,0.064-0.25,0.019-0.334,0.083c-0.164,0.125-0.002,0.113-0.111,0.25 c-0.098,0.123-0.075,0.057-0.222,0.167c-0.167,0.125-0.146-0.036-0.222,0.167c-0.018,0.048,0,0.227,0,0.278h-0.778 C284.414,386.954,284.44,387.085,284.414,387.155z"></path> </g> <g> <path fill="#FFFFFF" d="M243.167,361.194v0.333h1h0.223v0.445h0.889v0.445h0.445v0.445h1h0.182 c0.005,0.008,0.011,0.016,0.017,0.023l0.025,0.033v0.448l0.644,0.161c0.07,0.111,0.169,0.221,0.304,0.324 c0.007,0.005,0.013,0.01,0.02,0.015c0.027,0.061,0.061,0.123,0.104,0.184c0.082,0.116,0.17,0.206,0.258,0.278 c0.012,0.1,0.038,0.209,0.087,0.322c0.148,0.342,0.36,0.523,0.563,0.617c0.029,0.056,0.064,0.116,0.109,0.177 c0.005,0.006,0.01,0.013,0.014,0.019c-0.035,0.381-0.067,0.809,0.218,1.18c0.074,0.097,0.159,0.181,0.251,0.25 c0.03,0.241,0.131,0.548,0.431,0.804v2.339v2.227c-0.486,0.415-0.459,0.983-0.448,1.231l0.001,0.023 c-0.271,0.205-0.418,0.527-0.439,0.964c-0.009,0.012-0.018,0.024-0.027,0.036c-0.044,0.06-0.08,0.119-0.109,0.176 c-0.203,0.094-0.415,0.275-0.563,0.617c-0.03,0.069-0.051,0.136-0.065,0.201c-0.093,0.07-0.179,0.155-0.254,0.253 c-0.056,0.072-0.098,0.146-0.13,0.219c-0.006,0.005-0.013,0.009-0.019,0.014c-0.176,0.135-0.289,0.281-0.36,0.425 c-0.142,0.08-0.256,0.183-0.375,0.337c-0.049,0.062-0.087,0.125-0.118,0.184c-0.056,0.045-0.108,0.097-0.155,0.154h-0.717v0.334 h-0.889v0.445h-0.889v0.445h-0.778v0.445h-0.668h-1v0.445h-2.003v-0.445h-1h-0.668v-0.445h-0.778v-0.445h-0.889v-0.445h-0.445 v-0.334h-1h-0.047c-0.107-0.134-0.227-0.223-0.346-0.281c-0.072-0.127-0.178-0.255-0.333-0.374 c-0.006-0.005-0.013-0.009-0.019-0.014c-0.032-0.073-0.075-0.147-0.13-0.219c-0.135-0.175-0.296-0.278-0.449-0.34 c-0.002-0.002-0.004-0.005-0.005-0.007c-0.078-0.097-0.162-0.174-0.246-0.236c-0.039-0.375-0.225-0.63-0.414-0.795 c-0.007-0.12-0.029-0.255-0.085-0.391c-0.062-0.153-0.147-0.285-0.25-0.393c-0.005-0.058-0.014-0.123-0.027-0.192 c-0.068-0.365-0.228-0.618-0.427-0.783c0.001-0.015,0.001-0.029,0.002-0.041c0.014-0.164,0.038-0.439-0.084-0.722 c-0.099-0.23-0.228-0.387-0.363-0.494v-0.444v-1.445v-1.334v-0.444c0.135-0.107,0.264-0.264,0.363-0.494 c0.122-0.282,0.098-0.557,0.082-0.73c0-0.036-0.002-0.078-0.004-0.123c0.136-0.108,0.272-0.261,0.367-0.481 c0.087-0.201,0.116-0.387,0.123-0.55c0.089-0.101,0.162-0.221,0.218-0.358c0.026-0.062,0.044-0.124,0.057-0.183 c0.093-0.07,0.179-0.155,0.254-0.253c0.056-0.072,0.098-0.146,0.131-0.219c0.006-0.005,0.013-0.009,0.019-0.014 c0.158-0.121,0.265-0.251,0.337-0.381c0.192-0.098,0.389-0.278,0.529-0.6c0.022-0.051,0.039-0.101,0.053-0.151 c0.132-0.037,0.278-0.098,0.416-0.203c0.072-0.055,0.15-0.127,0.221-0.22c0.138-0.064,0.285-0.165,0.407-0.324h0.653v-0.445h0.889 v-0.445h0.778v-0.445h0.889v-0.333h1.557h1h0.334H243.167 M241.61,359.749h-1.334c0,0.148,0,0.297,0,0.445h-2.557 c0,0.111,0,0.222,0,0.333h-0.889c0,0.148,0,0.297,0,0.445h-0.778c0,0.148,0,0.296,0,0.445h-0.889c0,0.148,0,0.297,0,0.445h-0.445 c0,0.079,0.043,0.329,0,0.389c-0.051,0.072-0.264,0.054-0.333,0.111c-0.076,0.063,0.006,0.16-0.111,0.25 c-0.065,0.05-0.253,0.063-0.334,0.083c-0.315,0.079-0.388,0.033-0.445,0.334c-0.018,0.095,0.038,0.246,0,0.334 c-0.084,0.195-0.054,0.041-0.222,0.167c-0.147,0.11-0.124,0.044-0.222,0.167c-0.109,0.138,0.053,0.125-0.111,0.25 c-0.069,0.053-0.282,0.016-0.334,0.083c-0.054,0.07,0.054,0.264,0,0.334c-0.075,0.097-0.146,0.11-0.209,0.11 c-0.021,0-0.042-0.001-0.061-0.001c-0.076,0-0.136,0.021-0.175,0.225c-0.018,0.097,0.037,0.243,0,0.334 c-0.074,0.182-0.118,0.046-0.222,0.185c-0.158,0.212,0.002,0.443-0.111,0.704c-0.092,0.213-0.353,0.12-0.445,0.334 c-0.067,0.155,0,0.495,0,0.667c0,0.081,0.032,0.26,0,0.334c-0.084,0.195-0.054,0.041-0.222,0.167s-0.138-0.029-0.222,0.167 c-0.032,0.073,0,0.253,0,0.334c0,0.222,0,0.445,0,0.667c0,0.445,0,0.889,0,1.334c0,0.482,0,0.964,0,1.445c0,0.222,0,0.445,0,0.667 c0,0.081-0.032,0.26,0,0.334c0.084,0.196,0.054,0.041,0.222,0.167s0.138-0.029,0.222,0.167c0.032,0.073,0,0.253,0,0.333 c0,0.126-0.072,0.573,0,0.667c0.075,0.098,0.146,0.11,0.209,0.11c0.021,0,0.042-0.001,0.061-0.001 c0.076,0,0.136,0.021,0.175,0.225c0.051,0.273-0.03,0.404,0.111,0.593c0.104,0.14,0.148,0.003,0.222,0.185 c0.031,0.076,0,0.25,0,0.333c0,0.428,0.066,0.212,0.334,0.417c0.216,0.165,0.005,0.337,0.111,0.584 c0.075,0.173,0.332,0.192,0.445,0.333c0.109,0.138-0.053,0.125,0.111,0.25c0.069,0.053,0.282,0.016,0.334,0.083 c0.054,0.07-0.054,0.264,0,0.334c0.052,0.067,0.265,0.031,0.334,0.083c0.164,0.125,0.002,0.113,0.111,0.25 c0.098,0.123,0.076,0.057,0.222,0.167c0.067,0.05,0.103,0.054,0.128,0.054c0.005,0,0.009,0,0.014,0 c0.027,0,0.041,0.007,0.08,0.113c0.018,0.048,0,0.227,0,0.278h0.778c0,0.111,0,0.222,0,0.334h0.445c0,0.148,0,0.296,0,0.445h0.889 c0,0.148,0,0.297,0,0.445h0.778c0,0.148,0,0.297,0,0.445h1.668c0,0.148,0,0.296,0,0.445h4.003c0-0.148,0-0.297,0-0.445h1.668 c0-0.148,0-0.297,0-0.445h0.778c0-0.148,0-0.296,0-0.445h0.889c0-0.148,0-0.296,0-0.445h0.889c0-0.111,0-0.222,0-0.334h0.445 c0-0.078-0.025-0.206,0-0.278c0.07-0.198,0.114-0.039,0.222-0.185c0.051-0.068,0.062-0.196,0.111-0.259 c0.099-0.126,0.074-0.055,0.222-0.167c0.147-0.11,0.124-0.044,0.222-0.167c0.109-0.138-0.053-0.125,0.111-0.25 c0.069-0.053,0.282-0.016,0.334-0.083c0.054-0.07-0.054-0.264,0-0.333c0.075-0.097,0.146-0.11,0.209-0.11 c0.021,0,0.041,0.001,0.061,0.001c0.076,0,0.136-0.021,0.175-0.225c0.018-0.095-0.038-0.246,0-0.334 c0.084-0.195,0.054-0.041,0.222-0.167c0.149-0.111,0.124-0.041,0.222-0.167c0.049-0.063,0.06-0.191,0.111-0.259 c0.104-0.14,0.148-0.003,0.222-0.185c0.031-0.076,0-0.25,0-0.334c0-0.428,0.066-0.212,0.334-0.417 c0.165-0.126,0.111-0.339,0.111-0.584c0-0.244-0.054-0.457,0.111-0.584c0.268-0.205,0.334,0.011,0.334-0.417 c0-0.852,0-1.705,0-2.557c0-0.889,0-1.779,0-2.668c0-0.428-0.066-0.212-0.334-0.417c-0.192-0.147-0.063-0.328-0.111-0.584 c-0.038-0.204-0.099-0.225-0.175-0.225c-0.019,0-0.04,0.001-0.061,0.001c-0.063,0-0.134-0.012-0.209-0.11 c-0.072-0.094,0-0.542,0-0.667c0-0.083,0.031-0.258,0-0.334c-0.074-0.182-0.118-0.045-0.222-0.185 c-0.051-0.068-0.062-0.196-0.111-0.259c-0.099-0.126-0.074-0.055-0.222-0.167c-0.168-0.126-0.138,0.029-0.222-0.167 c-0.037-0.085,0.013-0.241,0-0.334c-0.059-0.42-0.268-0.193-0.445-0.445c-0.051-0.073,0.054-0.263,0-0.334 c-0.052-0.067-0.265-0.031-0.334-0.083c-0.164-0.125-0.002-0.113-0.111-0.25c-0.098-0.123-0.075-0.057-0.222-0.167 c-0.074-0.018-0.148-0.037-0.222-0.056c0-0.037,0-0.074,0-0.111c0.034-0.099,0-0.148-0.103-0.148c-0.003,0-0.005,0-0.008,0 c-0.037-0.012-0.074-0.025-0.111-0.037c-0.085-0.114-0.092-0.286-0.222-0.426h-0.778c0-0.148,0-0.296,0-0.445h-0.445 c0-0.148,0-0.296,0-0.445h-0.889c0-0.148,0-0.297,0-0.445h-1.223c0-0.111,0-0.222,0-0.333h-2.557 C241.61,360.045,241.61,359.897,241.61,359.749L241.61,359.749z"></path> <path fill="#FFFFFF" d="M256.286,202.873v0.445h0.889v0.445h1h0.181c0.006,0.008,0.011,0.015,0.017,0.023l0.035,0.047l0.013,0.439 l0.621,0.155c0.058,0.091,0.134,0.181,0.234,0.268c0.007,0.126,0.032,0.267,0.094,0.41c0.094,0.218,0.215,0.371,0.343,0.477 c-0.027,0.326-0.031,0.705,0.202,1.036c0.096,0.136,0.201,0.237,0.303,0.313c0.005,0.07,0.01,0.143,0.014,0.214 c-0.224,0.163-0.408,0.428-0.482,0.826c-0.048,0.258-0.035,0.498-0.024,0.692c0.003,0.055,0.007,0.109,0.007,0.16 c0,0.029,0.001,0.064,0.004,0.102c-0.025,0.023-0.051,0.048-0.075,0.076c-0.036,0.04-0.067,0.08-0.095,0.121 c-0.255,0.104-0.52,0.319-0.655,0.758h-0.845v0.713c-0.061,0.048-0.121,0.106-0.177,0.176h-0.157h-1v0.445h-31.576v-0.445h-1 h-0.158c-0.056-0.07-0.115-0.127-0.176-0.175v-0.715h-0.616c-0.06-0.072-0.133-0.143-0.221-0.211 c-0.006-0.005-0.012-0.009-0.019-0.014c-0.032-0.073-0.075-0.147-0.13-0.219c-0.075-0.098-0.161-0.182-0.254-0.253 c-0.015-0.065-0.036-0.132-0.065-0.201c-0.099-0.23-0.228-0.387-0.363-0.494v-0.444v-1.334v-1.144 c0.255-0.192,0.402-0.488,0.437-0.885c0.082-0.064,0.157-0.141,0.235-0.239c0.003-0.004,0.007-0.009,0.01-0.013 c0.086-0.036,0.177-0.085,0.266-0.154l0.386-0.3v-0.144c0.021-0.022,0.041-0.044,0.061-0.068h0.162h1v-0.445h0.889v-0.445H256.286 M257.286,201.873h-32.687c0,0.148,0,0.296,0,0.445h-0.889c0,0.148,0,0.296,0,0.445h-0.889c0,0.078,0.025,0.206,0,0.278 c-0.07,0.198-0.114,0.039-0.222,0.185c-0.003,0-0.005,0-0.008,0c-0.103,0-0.137,0.049-0.103,0.148c0,0.037,0,0.074,0,0.111 c-0.083,0.064-0.25,0.02-0.333,0.083c-0.164,0.125-0.002,0.113-0.111,0.25c-0.098,0.123-0.075,0.057-0.222,0.167 c-0.168,0.126-0.138-0.029-0.222,0.167c-0.032,0.073,0,0.253,0,0.334c0,0.428-0.066,0.212-0.334,0.417 c-0.165,0.126-0.111,0.339-0.111,0.584c0,0.408,0,0.815,0,1.223c0,0.445,0,0.889,0,1.334c0,0.222,0,0.445,0,0.667 c0,0.081-0.032,0.26,0,0.334c0.084,0.196,0.054,0.041,0.222,0.167c0.168,0.126,0.138-0.029,0.222,0.167 c0.038,0.088-0.018,0.239,0,0.334c0.038,0.204,0.099,0.225,0.175,0.225c0.019,0,0.04-0.001,0.061-0.001 c0.063,0,0.134,0.012,0.209,0.11c0.054,0.07-0.054,0.264,0,0.334c0.052,0.067,0.265,0.031,0.334,0.083 c0.146,0.112,0.111,0.205,0.111,0.417h0.334c0,0.077-0.026,0.208,0,0.278c0.039,0.106,0.053,0.113,0.08,0.113 c0.004,0,0.009,0,0.014,0c0.025,0,0.062,0.004,0.128,0.054c0.067,0.05,0.104,0.054,0.128,0.054c0.005,0,0.009,0,0.013,0 c0.027,0,0.041,0.007,0.08,0.113c0.018,0.048,0,0.227,0,0.278h0.889c0,0.148,0,0.296,0,0.445h33.576c0-0.148,0-0.297,0-0.445 h0.889c0-0.077-0.026-0.208,0-0.278c0.039-0.106,0.053-0.113,0.08-0.113c0.004,0,0.009,0,0.014,0c0.025,0,0.062-0.004,0.128-0.054 c0.067-0.05,0.103-0.054,0.128-0.054c0.005,0,0.009,0,0.014,0c0.027,0,0.041-0.007,0.08-0.113c0.018-0.048,0-0.227,0-0.278h0.778 c0-0.192-0.035-0.423,0-0.612c0.073-0.39,0.173-0.122,0.445-0.333c0.004-0.003,0.082-0.227,0.111-0.259 c0.1-0.11,0.242-0.014,0.333-0.185c0.072-0.134,0-0.511,0-0.667c0-0.21-0.039-0.461,0-0.667c0.038-0.204,0.099-0.225,0.175-0.225 c0.019,0,0.04,0.001,0.061,0.001c0.063,0,0.134-0.012,0.209-0.11c0.123-0.16,0.03-1.12,0-1.334 c-0.059-0.42-0.268-0.193-0.445-0.445c-0.073-0.104,0-0.534,0-0.667c0-0.081,0.032-0.26,0-0.334 c-0.084-0.195-0.054-0.041-0.222-0.167s-0.138,0.029-0.222-0.167c-0.032-0.073,0-0.253,0-0.334c0-0.428-0.066-0.212-0.334-0.417 c-0.164-0.125-0.002-0.113-0.111-0.25c-0.098-0.123-0.075-0.057-0.222-0.167c-0.074-0.018-0.148-0.037-0.222-0.056 c0-0.037,0-0.074,0-0.111c0.034-0.099,0-0.148-0.103-0.148c-0.003,0-0.005,0-0.008,0c-0.037-0.012-0.074-0.025-0.111-0.037 c-0.106-0.143-0.111-0.199-0.111-0.426h-0.889c0-0.148,0-0.296,0-0.445h-0.889C257.286,202.17,257.286,202.021,257.286,201.873 L257.286,201.873z"></path> <path fill="#FFFFFF" d="M280.523,183.417v0.334h1h0.916l-0.126,0.445h1.323h0.223v0.445h1h0.334v0.445h0.778v0.445h0.889v0.445h1 h0.265c0.08,0.073,0.165,0.131,0.25,0.177l-0.171,0.601h0.768v0.445h0.889v0.445h0.653l0.18,0.24l0.113,0.038 c0.005,0.008,0.011,0.016,0.016,0.023c0.073,0.102,0.161,0.189,0.261,0.258v0.664h1h0.158c0.056,0.07,0.115,0.128,0.176,0.175 v0.715h0.718c0.019,0.023,0.039,0.046,0.06,0.067v0.145l0.386,0.3c0.055,0.042,0.11,0.077,0.166,0.107 c0.075,0.156,0.173,0.288,0.291,0.392c0.018,0.2,0.083,0.433,0.254,0.656c0.135,0.175,0.296,0.278,0.45,0.34 c0.002,0.002,0.004,0.005,0.005,0.007c0.111,0.14,0.216,0.236,0.345,0.314l0.085,0.112c0.047,0.063,0.095,0.116,0.14,0.163 c0.049,0.518,0.28,0.809,0.566,0.992c0.07,0.127,0.171,0.25,0.314,0.362v0.158v1h0.503c0.023,0.058,0.05,0.113,0.082,0.167 c0.083,0.138,0.183,0.24,0.285,0.316c0.003,0.205,0.056,0.395,0.158,0.567c0.053,0.089,0.113,0.163,0.176,0.225 c-0.001,0.155,0.022,0.331,0.1,0.511c0.092,0.214,0.224,0.366,0.359,0.474c-0.008,0.128-0.008,0.273,0.021,0.426 c0.068,0.365,0.228,0.618,0.427,0.783c-0.001,0.015-0.001,0.029-0.002,0.041c-0.014,0.164-0.038,0.439,0.084,0.722 c0.099,0.229,0.227,0.386,0.362,0.493l-0.002,0.563c-0.014,0.165-0.038,0.44,0.084,0.722c0.099,0.23,0.228,0.387,0.363,0.494 v0.555c0,0.06-0.005,0.136-0.011,0.219c-0.034,0.558-0.08,1.315,0.455,1.778v0.449v11.118v22.236v22.236v22.236v22.236v22.236 v22.236v22.236v4.336v2.224c0,0.078,0.01,0.21,0.024,0.365c0.002,0.021,0.004,0.046,0.007,0.073 c-0.214,0.156-0.332,0.356-0.394,0.5c-0.14,0.323-0.11,0.646-0.089,0.882l0.007,0.071v1.046c-0.088,0.065-0.167,0.143-0.237,0.234 c-0.325,0.422-0.278,0.96-0.224,1.53c-0.184,0.155-0.339,0.401-0.411,0.785c-0.036,0.194-0.033,0.379-0.023,0.54 c-0.188,0.154-0.348,0.402-0.422,0.794c-0.031,0.164-0.034,0.321-0.03,0.455c-0.37,0.288-0.423,0.66-0.431,0.948 c-0.22,0.203-0.344,0.479-0.353,0.79c-0.104,0.076-0.206,0.179-0.29,0.319c-0.084,0.14-0.135,0.292-0.153,0.454 c-0.336,0.271-0.431,0.613-0.441,0.887c-0.11,0.088-0.195,0.185-0.259,0.283c-0.163,0.081-0.323,0.198-0.447,0.382 c-0.164,0.244-0.196,0.497-0.192,0.698c-0.001,0.001-0.002,0.003-0.003,0.004c-0.059,0.08-0.104,0.158-0.14,0.231 c-0.121,0.065-0.263,0.169-0.396,0.335l-0.01,0.013l-0.652,0.163v0.389c-0.083,0.057-0.164,0.131-0.237,0.227 c-0.127,0.165-0.187,0.337-0.213,0.498l-0.439,0.11v0.581c-0.041,0.043-0.084,0.091-0.126,0.145l-0.653,0.163v0.452 c-0.062,0.053-0.114,0.108-0.159,0.163h-0.175h-1.291l0.191,0.74c-0.045,0.042-0.09,0.09-0.133,0.145l-0.212,0.271v0.011 l-0.025,0.033c-0.006,0.008-0.011,0.016-0.017,0.023h-0.737v0.445h-0.889v0.445h-0.778v0.716c-0.027,0.019-0.054,0.039-0.08,0.062 h-0.254h-1v0.445h-0.889v0.445h-0.778v0.445h-0.334h-1v0.445h-0.223h-1v0.334h-1.112h-1v0.445h-79.161v-0.445h-1h-0.668v-0.334h-1 h-0.668v-0.445h-0.889v-0.445h-1h-0.223v-0.445h-0.889v-0.445h-1h-0.223v-0.778h-0.889v-0.445h-0.445v-0.445h-1h-0.098 c-0.04-0.052-0.082-0.098-0.125-0.139v-0.476l-0.275-0.069l0.153-0.54h-0.975c-0.007-0.009-0.014-0.017-0.021-0.026 c-0.128-0.154-0.276-0.251-0.422-0.311c-0.093-0.144-0.206-0.249-0.297-0.318l-0.136-0.104c-0.003-0.004-0.006-0.008-0.009-0.012 c-0.041-0.055-0.085-0.102-0.13-0.145v-0.041l-0.212-0.271c-0.077-0.098-0.151-0.176-0.232-0.24v-0.085l-0.395-0.3 c-0.017-0.013-0.033-0.025-0.049-0.036v-0.393l-0.565-0.141c-0.025-0.044-0.054-0.089-0.087-0.133 c-0.134-0.174-0.295-0.279-0.452-0.343l-0.003-0.003c-0.067-0.084-0.131-0.152-0.2-0.21c0.005-0.222-0.031-0.49-0.21-0.744 l-0.189-0.269l-0.129-0.043c-0.005-0.008-0.011-0.016-0.016-0.023c-0.07-0.099-0.154-0.184-0.251-0.253 c-0.023-0.304-0.156-0.673-0.593-0.941c-0.07-0.123-0.17-0.243-0.309-0.351c-0.039-0.254-0.167-0.543-0.485-0.796 c-0.019-0.287-0.113-0.529-0.289-0.733l0.001-0.137c0.014-0.164,0.038-0.44-0.084-0.722c-0.096-0.221-0.218-0.375-0.348-0.482 c0.003-0.208-0.028-0.458-0.197-0.698c-0.081-0.114-0.172-0.202-0.265-0.269c0.052-0.311,0.094-0.707-0.08-1.109 c-0.096-0.222-0.235-0.377-0.374-0.486c0.007-0.086,0.012-0.164,0.012-0.223c0.001-0.031,0.005-0.069,0.009-0.109 c0.024-0.261,0.057-0.619-0.091-0.961c-0.107-0.248-0.267-0.412-0.423-0.522c0.007-0.121,0.019-0.254,0.028-0.346 c0.018-0.195,0.033-0.376,0.033-0.515v-2.779v-11.118v-22.236v-22.236v-22.236v-22.236v-22.236v-22.236v-22.236v-7.783 c0-0.039-0.003-0.093-0.007-0.158c0.086-0.059,0.169-0.135,0.245-0.232c0.283-0.367,0.244-0.786,0.213-1.123l-0.006-0.043 c0-0.104-0.01-0.239-0.024-0.384c-0.001-0.013-0.002-0.027-0.004-0.041c0.504-0.408,0.483-0.953,0.475-1.16l-0.002-0.082 c0-0.109-0.006-0.226-0.013-0.345c-0.002-0.037-0.005-0.08-0.007-0.124c0.363-0.264,0.442-0.605,0.459-0.878 c0.197-0.153,0.308-0.343,0.368-0.48c0.128-0.295,0.135-0.614,0.117-0.9c0.151-0.192,0.233-0.417,0.251-0.68 c0.221-0.168,0.352-0.356,0.425-0.54h0.512v-0.711c0.351-0.274,0.448-0.625,0.458-0.903c0.148-0.136,0.243-0.278,0.303-0.417 c0.053-0.049,0.109-0.109,0.163-0.182c0.14-0.188,0.217-0.345,0.258-0.515c0.103-0.075,0.196-0.166,0.279-0.275 c0.038-0.049,0.07-0.099,0.096-0.149c0.122-0.065,0.243-0.159,0.348-0.295c0.038-0.05,0.07-0.1,0.097-0.15 c0.122-0.065,0.243-0.159,0.348-0.295c0.038-0.049,0.07-0.1,0.097-0.15c0.122-0.065,0.243-0.159,0.348-0.295 c0.038-0.049,0.07-0.099,0.096-0.149c0.122-0.065,0.243-0.159,0.348-0.295c0.082-0.106,0.138-0.218,0.175-0.333h0.811v-0.714 c0.061-0.048,0.121-0.106,0.177-0.176h0.713v-0.668c0.019-0.013,0.039-0.027,0.058-0.042l0.387-0.3v-0.156l0.024-0.033 c0.006-0.008,0.012-0.016,0.017-0.023h0.181h1v-0.445h0.445v-0.445h0.889v-0.778h0.223h1v-0.445h0.889v-0.445h0.223h1v-0.445 h0.889v-0.445h0.668h1v-0.445h0.668h1v-0.334H280.523 M201.141,192.09h-0.223h-1v0.445h-0.334h-1v0.333h-0.778v0.445h-0.889v0.756 c-0.079,0.062-0.151,0.137-0.227,0.232l-0.048,0.06c-0.037,0.022-0.075,0.047-0.112,0.075c-0.088,0.068-0.161,0.139-0.222,0.211 h-0.06h-1.291l0.185,0.715c-0.087,0.092-0.15,0.186-0.196,0.279c-0.139,0.079-0.251,0.179-0.369,0.328 c-0.001,0.002-0.003,0.004-0.004,0.005c-0.152,0.061-0.315,0.165-0.45,0.341c-0.196,0.254-0.233,0.529-0.228,0.771 c-0.046,0.044-0.09,0.095-0.131,0.153c-0.043,0.061-0.077,0.122-0.103,0.183c-0.007,0.005-0.013,0.01-0.02,0.015 c-0.074,0.057-0.139,0.12-0.196,0.189c-0.081,0.034-0.166,0.081-0.249,0.145c-0.301,0.231-0.466,0.539-0.489,0.937 c-0.14,0.108-0.28,0.264-0.377,0.488c-0.066,0.154-0.092,0.305-0.098,0.442c-0.192,0.165-0.345,0.415-0.412,0.77 c-0.029,0.153-0.03,0.298-0.021,0.426c-0.133,0.107-0.266,0.259-0.359,0.474c-0.148,0.342-0.115,0.699-0.091,0.96 c0,0.001,0,0.003,0,0.004c-0.005,0.007-0.011,0.014-0.016,0.021c-0.32,0.431-0.314,0.889-0.31,1.192l0.001,0.109v11.118v22.236 v22.236v22.236v22.236v22.236v22.236v22.236v4.781v2.335v1.242c0,0.287,0,0.644,0.309,1.059c0.007,0.009,0.014,0.018,0.021,0.027 c0,0.006-0.001,0.013-0.001,0.019c-0.009,0.161-0.022,0.382,0.023,0.617c0.068,0.361,0.209,0.6,0.378,0.756 c-0.039,0.308-0.038,0.731,0.257,1.115c0.061,0.08,0.13,0.15,0.205,0.21c0.009,0.212,0.066,0.454,0.239,0.68 c0.08,0.104,0.171,0.191,0.275,0.261c0.071,0.352,0.276,0.584,0.465,0.729l0.135,0.104c0.008,0.01,0.016,0.021,0.024,0.031 c0.075,0.095,0.148,0.17,0.227,0.232v0.017l0.182,0.259c0.042,0.06,0.087,0.112,0.135,0.157c0.006,0.137,0.032,0.288,0.099,0.442 c0.065,0.15,0.192,0.363,0.428,0.522c0.033,0.082,0.08,0.165,0.142,0.247c0.073,0.095,0.154,0.169,0.237,0.226v0.278l0.445,0.111 v0.608h0.986c0.007,0.008,0.013,0.017,0.02,0.025l0.21,0.254l0.109,0.027l0.105,0.137c0.073,0.095,0.154,0.169,0.237,0.226v0.664 h0.889v0.334h0.778v0.445h1h0.334v0.445h1h0.223v0.445h1h77.604h1v-0.445h0.668h1v-0.445h0.889V389.1h0.778v-0.334h0.889v-0.714 c0.061-0.048,0.121-0.106,0.177-0.176h0.046h1v-0.756c0.079-0.063,0.152-0.137,0.227-0.232c0.004-0.005,0.007-0.009,0.011-0.014 c0.083-0.034,0.171-0.081,0.256-0.146c0.071-0.054,0.133-0.114,0.187-0.181c0.151-0.062,0.311-0.165,0.446-0.339 c0.039-0.05,0.073-0.101,0.102-0.154c0.119-0.063,0.239-0.156,0.343-0.291c0.067-0.087,0.115-0.176,0.149-0.263 c0.226-0.163,0.411-0.429,0.486-0.829c0.015-0.081,0.024-0.156,0.03-0.225c0.039-0.038,0.079-0.083,0.118-0.133l0.041-0.054 c0.191-0.099,0.386-0.278,0.525-0.598c0.03-0.069,0.051-0.136,0.065-0.201c0.093-0.07,0.179-0.155,0.254-0.253 c0.196-0.255,0.243-0.533,0.241-0.762c0.29-0.238,0.357-0.573,0.383-0.715c0.146-0.107,0.285-0.27,0.391-0.515 c0.122-0.282,0.098-0.557,0.082-0.73c0-0.06-0.004-0.132-0.01-0.211c0.015-0.018,0.03-0.037,0.044-0.057 c0.255-0.342,0.3-0.58,0.3-0.955v-1.334c0-0.117-0.007-0.253-0.015-0.396c-0.008-0.132-0.02-0.353-0.012-0.49 c0.186-0.161,0.378-0.403,0.455-0.824c0.047-0.255,0.033-0.494,0.023-0.685c-0.003-0.056-0.007-0.11-0.007-0.161v-1.445v-5.559 v-22.236v-22.236v-22.236v-22.236v-22.236v-22.236v-22.236v-5.225l0.002-1.328c0.02-0.232,0.05-0.584-0.184-0.915 c-0.079-0.112-0.169-0.197-0.263-0.261c-0.003-0.031-0.006-0.058-0.01-0.081c-0.027-0.194-0.016-0.446-0.004-0.713 c0.007-0.164,0.014-0.326,0.014-0.482v-0.667l0-0.072c0.002-0.294,0.004-0.697-0.309-1.118c-0.005-0.007-0.011-0.014-0.016-0.021 c0-0.001,0-0.003,0-0.004c0.024-0.261,0.057-0.618-0.091-0.96c-0.099-0.228-0.242-0.385-0.386-0.495 c-0.046-0.358-0.227-0.602-0.41-0.763c-0.007-0.126-0.032-0.267-0.094-0.41c-0.102-0.236-0.235-0.396-0.375-0.503 c-0.047-0.434-0.232-0.743-0.554-0.924c-0.06-0.1-0.129-0.179-0.195-0.241c-0.005-0.138-0.032-0.289-0.099-0.444 c-0.128-0.295-0.339-0.474-0.522-0.588c-0.072-0.133-0.181-0.268-0.344-0.393c-0.006-0.005-0.012-0.009-0.018-0.014 c-0.032-0.073-0.075-0.147-0.13-0.219c-0.135-0.175-0.296-0.278-0.449-0.34c-0.002-0.002-0.004-0.004-0.005-0.007 c-0.075-0.095-0.148-0.17-0.227-0.232v-0.371l-0.445-0.111v-0.608h-1h-0.047c-0.056-0.07-0.115-0.128-0.176-0.175v-0.714h-0.889 v-0.445h-0.778v-0.333h-0.889v-0.445h-1h-0.668v-0.445h-1h-77.604h-1V192.09 M281.523,182.417h-81.161c0,0.111,0,0.222,0,0.334 h-1.668c0,0.148,0,0.296,0,0.445h-1.668c0,0.148,0,0.297,0,0.445h-0.889c0,0.148,0,0.296,0,0.445h-1.223c0,0.148,0,0.296,0,0.445 h-0.889c0,0.148,0,0.296,0,0.445h-0.889c0.087,0.308-0.111,0.202-0.222,0.352c-0.106,0.143-0.111,0.199-0.111,0.426h-0.889 c0,0.148,0,0.296,0,0.445h-0.445c0,0.148,0,0.296,0,0.445h-0.889c0,0.237-0.003,0.281-0.111,0.426 c-0.074,0.025-0.148,0.049-0.222,0.074c0,0.074,0,0.148,0,0.222c-0.097,0.075-0.368,0.018-0.445,0.111 c-0.037,0.045,0,0.32,0,0.389h-0.445c0,0.077,0.026,0.208,0,0.278c-0.039,0.106-0.053,0.113-0.08,0.113c-0.004,0-0.009,0-0.014,0 c-0.025,0-0.062,0.004-0.128,0.054c-0.067,0.05-0.103,0.054-0.128,0.054c-0.005,0-0.009,0-0.014,0 c-0.027,0-0.041,0.007-0.08,0.113c-0.018,0.048,0,0.227,0,0.278h-0.778c0,0.137,0.079,0.62,0,0.723 c-0.073,0.095-0.372,0.016-0.445,0.111c-0.054,0.07,0.054,0.264,0,0.334c-0.073,0.095-0.372,0.016-0.445,0.111 c-0.054,0.07,0.054,0.264,0,0.334c-0.073,0.095-0.372,0.016-0.445,0.111c-0.054,0.07,0.054,0.264,0,0.334 c-0.073,0.095-0.372,0.016-0.445,0.111c-0.054,0.07,0.054,0.264,0,0.333c-0.226,0.293-0.445-0.093-0.445,0.445 c0,0.229-0.008,0.232-0.111,0.371c-0.057,0.077-0.167,0.111-0.222,0.185c-0.098,0.132,0.032,0.134-0.111,0.264 c-0.066,0.06-0.25,0.094-0.333,0.125c0,0.148,0,0.297,0,0.445c0.094,0.332-0.199,0.353-0.445,0.445c0,0.111,0,0.222,0,0.333 h-0.445c0,0.148,0,0.297,0,0.445c0.109,0.383-0.349,0.305-0.445,0.611c-0.129,0.416,0.134,0.489-0.334,0.723 c0,0.244,0.095,0.724,0,0.945c-0.097,0.226-0.313,0.052-0.445,0.222c-0.047,0.061,0,0.363,0,0.445 c0,0.338-0.003,0.225-0.222,0.389c-0.213,0.16-0.167-0.015-0.222,0.278c-0.052,0.274,0,0.61,0,0.889 c0,0.229,0.043,0.355-0.111,0.473c-0.177,0.136-0.243-0.015-0.334,0.195c-0.101,0.234,0,0.742,0,1.001c0,0.104,0.06,0.478,0,0.556 c-0.073,0.095-0.372,0.016-0.445,0.111c-0.097,0.126,0,0.721,0,0.889c0,2.594,0,5.188,0,7.783c0,7.412,0,14.824,0,22.236 c0,7.412,0,14.824,0,22.236c0,7.412,0,14.824,0,22.236c0,7.412,0,14.824,0,22.236c0,7.412,0,14.824,0,22.236s0,14.824,0,22.236 s0,14.824,0,22.236c0,3.706,0,7.412,0,11.118c0,0.927,0,1.853,0,2.779c0,0.374-0.146,1.108,0,1.445 c0.092,0.213,0.353,0.12,0.445,0.333c0.067,0.155,0,0.495,0,0.667c0,0.201-0.078,0.597,0,0.778 c0.092,0.213,0.353,0.12,0.445,0.333c0.158,0.365-0.186,0.985,0,1.334c0.099,0.185,0.352,0.091,0.445,0.222 c0.033,0.047,0,0.274,0,0.334c0,0.081-0.032,0.26,0,0.334c0.084,0.196,0.054,0.041,0.222,0.167s0.138-0.029,0.222,0.167 c0.032,0.073,0,0.253,0,0.333c0,0.204,0,0.408,0,0.612c0.467,0.234,0.204,0.307,0.334,0.723c0.097,0.311,0.544,0.226,0.445,0.612 c0,0.111,0,0.222,0,0.334c0.25,0.094,0.53,0.116,0.445,0.445c0.25,0.094,0.53,0.116,0.445,0.445c0,0.148,0,0.297,0,0.445 c0.084,0.031,0.268,0.065,0.333,0.125c0.109,0.001,0.146,0.052,0.111,0.153c-0.034,0.099,0,0.148,0.103,0.148 c0.003,0,0.005,0,0.008,0c0.074,0.025,0.148,0.049,0.222,0.074c0.074,0.105-0.024,0.426,0,0.556 c0.055,0.293,0.009,0.118,0.222,0.278c0.147,0.11,0.124,0.044,0.222,0.167c0,0.074,0,0.148,0,0.222 c0.073,0.095,0.372,0.016,0.445,0.111c0.054,0.07-0.054,0.264,0,0.334c0.074,0.019,0.148,0.037,0.222,0.056 c0.074,0.019,0.148,0.037,0.222,0.056c0,0.074,0,0.148,0,0.222c0.126,0.158,0.262,0.084,0.445,0.222c0,0.074,0,0.148,0,0.222 c0.074,0.019,0.148,0.037,0.222,0.056c0.149,0.111,0.124,0.041,0.222,0.167c0,0.074,0,0.148,0,0.222 c0.064,0.091,0.267,0.135,0.334,0.222c0.11,0.145-0.056,0.122,0.111,0.25c0.074,0.019,0.148,0.037,0.222,0.056 c0.179,0.137-0.008,0.206,0.111,0.361c0.074,0.096,0.367,0.018,0.445,0.111c0.037,0.045,0,0.32,0,0.389h0.445 c-0.082,0.289,0.069,0.218,0.222,0.334c0.074,0.018,0.148,0.037,0.222,0.056c0,0.074,0,0.148,0,0.222 c0.072,0.096,0.259,0.123,0.334,0.222c0.038,0.051,0,0.316,0,0.389h0.889c0,0.148,0,0.297,0,0.445h0.445c0,0.148,0,0.296,0,0.445 h0.889c0,0.237,0.003,0.281,0.111,0.426c0.112,0.15,0.299,0.058,0.222,0.352h0.889c0,0.148,0,0.297,0,0.445h0.889 c0,0.148,0,0.297,0,0.445h1.223c0,0.148,0,0.296,0,0.445h0.889c0,0.148,0,0.296,0,0.445h1.668c0,0.111,0,0.222,0,0.334h1.668 c0,0.148,0,0.296,0,0.445h81.161c0-0.148,0-0.296,0-0.445h2.112c0-0.111,0-0.222,0-0.334h1.223c0-0.148,0-0.296,0-0.445h1.334 c0-0.148,0-0.297,0-0.445h0.778c0-0.148,0-0.297,0-0.445h0.889c0-0.148,0-0.296,0-0.445h0.889 c-0.103-0.363,0.15-0.221,0.334-0.361c0.146-0.112,0.111-0.205,0.111-0.417h0.778c0-0.148,0-0.296,0-0.445h0.889 c0-0.148,0-0.297,0-0.445h0.445c0-0.237,0.003-0.281,0.111-0.426c0.074-0.025,0.148-0.049,0.222-0.074c0-0.074,0-0.148,0-0.222 c0.137-0.175,0.536-0.147,0.445-0.5h0.778c0.157-0.169,0.071-0.301,0.222-0.417c0.159-0.122,0.225-0.058,0.334-0.195 c0-0.074,0-0.148,0-0.222c0.074-0.018,0.148-0.037,0.222-0.056c0.074-0.019,0.148-0.037,0.222-0.056c0-0.074,0-0.148,0-0.222 c0.09-0.119,0.243-0.214,0.334-0.334c0-0.074,0-0.148,0-0.222c0.074-0.019,0.148-0.037,0.222-0.056 c0.213-0.16,0.167,0.015,0.222-0.278c0.018-0.097-0.058-0.369,0-0.445c0.052-0.067,0.265-0.031,0.334-0.083 c0.01,0.001,0.02,0.001,0.029,0.001c0.087,0,0.115-0.047,0.082-0.14c0-0.074,0-0.148,0-0.222c0.074-0.018,0.148-0.037,0.222-0.056 c0.074-0.019,0.148-0.037,0.222-0.056c0-0.074,0-0.148,0-0.222c0.109-0.136,0.175-0.073,0.334-0.195 c0.131-0.101,0.124-0.267,0.222-0.398c0.144-0.194,0.168,0,0.222-0.297c0.019-0.105-0.058-0.358,0-0.445 c0.049-0.072,0.359-0.135,0.445-0.167c-0.094-0.332,0.199-0.353,0.445-0.445c0-0.148,0-0.296,0-0.445 c-0.094-0.332,0.199-0.353,0.445-0.445c0-0.111,0-0.222,0-0.334c-0.103-0.363,0.15-0.221,0.333-0.361 c0.158-0.121,0.111-0.297,0.111-0.528c-0.087-0.308,0.111-0.202,0.222-0.352c0.114-0.154,0.111-0.233,0.111-0.482 c0-0.338,0.003-0.225,0.222-0.389s0.222-0.051,0.222-0.389c0-0.175-0.032-0.385,0-0.556c0.066-0.349,0.087-0.117,0.334-0.306 c0.243-0.186,0.05-0.702,0.111-1.028c0.066-0.349,0.087-0.117,0.334-0.306c0.154-0.118,0.111-0.243,0.111-0.472 c0-0.211-0.121-0.954,0-1.112c0.131-0.171,0.347,0.003,0.445-0.222c0.056-0.129,0-0.413,0-0.556c0-0.371,0-0.741,0-1.112 c0-0.143-0.056-0.427,0-0.556c0.097-0.226,0.313-0.052,0.445-0.222c0.121-0.157,0-0.901,0-1.112c0-0.741,0-1.482,0-2.224 c0-1.445,0-2.891,0-4.336c0-7.412,0-14.824,0-22.236s0-14.824,0-22.236c0-7.412,0-14.824,0-22.236s0-14.824,0-22.236 c0-7.412,0-14.824,0-22.236c0-7.412,0-14.824,0-22.236c0-7.412,0-14.824,0-22.236c0-3.706,0-7.412,0-11.118 c0-0.259,0-0.519,0-0.778c0-0.428-0.066-0.212-0.333-0.417c-0.226-0.173-0.111-0.915-0.111-1.251c0-0.259,0-0.519,0-0.778 c0-0.081,0.032-0.26,0-0.334c-0.084-0.196-0.054-0.041-0.222-0.167c-0.168-0.126-0.138,0.029-0.222-0.167 c-0.032-0.073,0-0.253,0-0.334c0-0.222,0-0.445,0-0.667c0-0.113,0.044-0.343,0-0.445c-0.084-0.196-0.054-0.041-0.222-0.167 c-0.168-0.126-0.138,0.029-0.222-0.167c-0.032-0.073,0-0.253,0-0.334c0-0.126,0.072-0.573,0-0.667 c-0.075-0.097-0.146-0.11-0.209-0.11c-0.021,0-0.041,0.001-0.061,0.001c-0.076,0-0.136-0.021-0.175-0.225 c-0.043-0.227,0.091-0.569,0-0.778c-0.092-0.213-0.353-0.12-0.445-0.334c-0.073-0.168,0.103-0.52,0-0.667 c-0.133-0.189-0.43-0.015-0.334-0.389c0-0.236,0.048-0.406-0.111-0.528c-0.186-0.142-0.424-0.01-0.333-0.361 c0-0.148,0-0.296,0-0.445H297.2c0-0.111,0-0.222,0-0.333c0-0.148,0-0.297,0-0.445c-0.25-0.094-0.53-0.116-0.445-0.445 c-0.351-0.132-0.445-0.115-0.445-0.5c0-0.386-0.159-0.325-0.334-0.556c0-0.074,0-0.148,0-0.222 c-0.074-0.019-0.148-0.037-0.222-0.056c-0.147-0.11-0.124-0.044-0.222-0.167c-0.109-0.137,0.053-0.125-0.111-0.25 c-0.069-0.053-0.282-0.016-0.333-0.083c-0.163-0.212,0.124-0.514-0.111-0.695c-0.177-0.136-0.243,0.015-0.334-0.195 c-0.034-0.078,0.051-0.267,0-0.334c-0.071-0.092-0.351-0.038-0.445-0.111c0-0.074,0-0.148,0-0.222 c-0.037-0.012-0.074-0.025-0.111-0.037c-0.108-0.146-0.152,0.012-0.222-0.185c-0.018-0.05,0-0.225,0-0.278h-0.445 c0-0.077,0.026-0.208,0-0.278c-0.039-0.106-0.053-0.113-0.08-0.113c-0.004,0-0.009,0-0.014,0c-0.025,0-0.062-0.004-0.128-0.054 c-0.067-0.05-0.104-0.054-0.128-0.054c-0.005,0-0.009,0-0.013,0c-0.027,0-0.041-0.007-0.08-0.113c-0.018-0.048,0-0.227,0-0.278 h-0.889c0-0.22,0.037-0.304-0.111-0.417c-0.074-0.019-0.148-0.037-0.222-0.056c-0.01,0.001-0.02,0.001-0.029,0.001 c-0.087,0-0.115-0.047-0.082-0.14c0.034-0.099,0-0.148-0.103-0.148c-0.003,0-0.005,0-0.008,0 c-0.074-0.025-0.148-0.049-0.222-0.074c-0.038-0.051,0-0.316,0-0.389h-0.445c0-0.148,0-0.296,0-0.445h-0.889 c0-0.148,0-0.297,0-0.445h-0.445c0.173-0.611-0.931-0.186-0.778-0.778h-0.889c0-0.148,0-0.297,0-0.445h-0.889 c0-0.148,0-0.296,0-0.445h-0.778c0-0.148,0-0.296,0-0.445h-1.334c0-0.148,0-0.296,0-0.445h-1.223 c0.094-0.332-0.199-0.353-0.445-0.445h-1.668C281.523,182.639,281.523,182.528,281.523,182.417L281.523,182.417z M193.037,200.371 c0.063,0,0.134-0.012,0.209-0.11c0.105-0.136-0.07-0.506,0-0.667c0.092-0.213,0.353-0.12,0.445-0.333 c0.115-0.266-0.121-0.517,0.111-0.695c0.084-0.064,0.25-0.02,0.334-0.083c0.062-0.047,0.007-0.171,0.111-0.25 c0.082-0.063,0.255-0.016,0.333-0.083c0.054-0.046-0.042-0.273,0-0.334c0.054-0.077,0.279-0.034,0.334-0.111 c0.033-0.047,0-0.274,0-0.334c0-0.081-0.047-0.384,0-0.445c0.052-0.067,0.265-0.031,0.334-0.083 c0.164-0.125,0.002-0.113,0.111-0.25c0.098-0.123,0.076-0.057,0.222-0.167c0.147-0.11,0.124-0.044,0.222-0.167 c0.109-0.138-0.053-0.125,0.111-0.25c0.186-0.142,0.424-0.01,0.334-0.361h0.778c0-0.22-0.037-0.304,0.111-0.417 c0.069-0.053,0.282-0.016,0.333-0.083c0-0.074,0-0.148,0-0.222c0.098-0.123,0.076-0.057,0.222-0.167 c0.074-0.019,0.148-0.037,0.222-0.056c0.037-0.045,0-0.32,0-0.389h0.889c0-0.148,0-0.296,0-0.445h0.778c0-0.111,0-0.222,0-0.333 h1.334c0-0.148,0-0.297,0-0.445h1.223c0-0.148,0-0.296,0-0.445h77.604c0,0.148,0,0.297,0,0.445h1.668c0,0.148,0,0.296,0,0.445 h0.889c0,0.111,0,0.222,0,0.333h0.778c0,0.148,0,0.297,0,0.445h0.889c0,0.077-0.026,0.208,0,0.278 c0.039,0.106,0.053,0.113,0.08,0.113c0.004,0,0.009,0,0.014,0c0.025,0,0.062,0.004,0.128,0.054 c0.067,0.05,0.103,0.054,0.128,0.054c0.005,0,0.009,0,0.014,0c0.027,0,0.041,0.007,0.08,0.113c0.018,0.048,0,0.227,0,0.278h0.778 c0,0.077-0.026,0.208,0,0.278c0.039,0.106,0.053,0.113,0.08,0.113c0.004,0,0.009,0,0.014,0c0.025,0,0.062,0.004,0.128,0.054 c0.074,0.018,0.148,0.037,0.222,0.056c0,0.037,0,0.074,0,0.111c-0.033,0.094-0.005,0.14,0.082,0.14 c0.009,0,0.019-0.001,0.029-0.001c0.037,0.009,0.074,0.018,0.111,0.028c0.147,0.11,0.124,0.044,0.222,0.167 c0.109,0.137-0.053,0.125,0.111,0.25c0.069,0.053,0.282,0.016,0.333,0.083c0.054,0.07-0.054,0.264,0,0.334 c0.052,0.067,0.265,0.031,0.334,0.083c0.164,0.126,0.002,0.113,0.111,0.25c0.113,0.142,0.37,0.16,0.445,0.334 c0.073,0.168-0.103,0.52,0,0.667c0.051,0.072,0.264,0.054,0.334,0.111c0.076,0.063-0.006,0.16,0.111,0.25 c0.268,0.205,0.334-0.011,0.334,0.417c0,0.081-0.032,0.26,0,0.334c0.084,0.195,0.054,0.041,0.222,0.167 c0.168,0.126,0.138-0.029,0.222,0.167c0.032,0.073,0,0.253,0,0.334c0,0.428,0.066,0.212,0.334,0.417 c0.216,0.165,0.005,0.337,0.111,0.584c0.092,0.213,0.353,0.12,0.445,0.334c0.067,0.155,0,0.495,0,0.667 c0,0.083-0.031,0.258,0,0.334c0.074,0.182,0.118,0.046,0.222,0.185c0.126,0.17,0.111,0.323,0.111,0.593c0,0.222,0,0.445,0,0.667 c0,0.43-0.06,0.909,0,1.334c0.02,0.141,0.034,0.558,0.111,0.667c0.054,0.077,0.279,0.034,0.334,0.111c0.033,0.047,0,0.274,0,0.334 c0,0.445,0,0.889,0,1.334c0,1.742,0,3.484,0,5.225c0,7.412,0,14.824,0,22.236c0,7.412,0,14.824,0,22.236 c0,7.412,0,14.824,0,22.236c0,7.412,0,14.824,0,22.236c0,7.412,0,14.824,0,22.236s0,14.824,0,22.236s0,14.824,0,22.236 c0,1.853,0,3.706,0,5.559c0,0.482,0,0.964,0,1.445c0,0.21,0.038,0.461,0,0.667c-0.054,0.293-0.193,0.239-0.334,0.445 c-0.228,0.332-0.111,1.023-0.111,1.445c0,0.445,0,0.889,0,1.334c0,0.229-0.008,0.232-0.111,0.371 c-0.104,0.14-0.148,0.003-0.222,0.185c-0.066,0.161,0,0.491,0,0.667c0,0.081,0.032,0.26,0,0.334 c-0.084,0.195-0.054,0.041-0.222,0.167s-0.138-0.029-0.222,0.167c-0.038,0.088,0.018,0.239,0,0.334 c-0.055,0.293-0.009,0.118-0.222,0.278c-0.168,0.126-0.138-0.029-0.222,0.167c-0.07,0.161,0.105,0.531,0,0.667 c-0.075,0.097-0.146,0.11-0.209,0.11c-0.021,0-0.042-0.001-0.061-0.001c-0.076,0-0.136,0.021-0.175,0.225 c-0.018,0.095,0.038,0.246,0,0.334c-0.084,0.196-0.054,0.041-0.222,0.167c-0.074,0.018-0.148,0.037-0.222,0.056 c0,0.074,0,0.148,0,0.222c-0.052,0.069-0.169,0.113-0.222,0.185c-0.141,0.189-0.06,0.32-0.111,0.593 c-0.038,0.204-0.099,0.225-0.175,0.225c-0.019,0-0.04-0.001-0.061-0.001c-0.063,0-0.134,0.012-0.209,0.11 c-0.054,0.07,0.054,0.264,0,0.334c-0.052,0.067-0.265,0.031-0.334,0.083c-0.179,0.137,0.008,0.206-0.111,0.361 c-0.052,0.067-0.265,0.031-0.333,0.083c-0.104,0.08-0.049,0.203-0.111,0.25c-0.084,0.064-0.25,0.019-0.334,0.083 c-0.164,0.125-0.002,0.113-0.111,0.25c-0.098,0.123-0.075,0.057-0.222,0.167c-0.067,0.05-0.103,0.054-0.128,0.054 c-0.005,0-0.009,0-0.014,0c-0.027,0-0.041,0.007-0.08,0.113c-0.018,0.048,0,0.227,0,0.278h-0.778c0,0.077,0.026,0.208,0,0.278 c-0.039,0.106-0.053,0.113-0.08,0.113c-0.004,0-0.009,0-0.014,0c-0.025,0-0.062,0.004-0.128,0.054 c-0.067,0.05-0.103,0.054-0.128,0.054c-0.005,0-0.009,0-0.014,0c-0.027,0-0.041,0.007-0.08,0.113c-0.018,0.048,0,0.227,0,0.278 h-0.889c0,0.111,0,0.222,0,0.334h-0.778c0,0.148,0,0.296,0,0.445h-0.889c0,0.148,0,0.296,0,0.445h-1.668c0,0.148,0,0.297,0,0.445 h-77.604c0-0.148,0-0.296,0-0.445h-1.223c0-0.148,0-0.296,0-0.445h-1.334c0-0.148,0-0.297,0-0.445h-0.778c0-0.111,0-0.222,0-0.334 h-0.889c0-0.22,0.037-0.304-0.111-0.417c-0.069-0.053-0.282-0.016-0.334-0.083c0-0.074,0-0.148,0-0.222 c-0.098-0.123-0.075-0.057-0.222-0.167c-0.074-0.018-0.148-0.037-0.222-0.056c-0.037-0.045,0-0.32,0-0.389h-0.778 c0-0.077,0.026-0.208,0-0.278c-0.039-0.106-0.053-0.113-0.08-0.113c-0.004,0-0.009,0-0.014,0c-0.025,0-0.062-0.004-0.128-0.054 c-0.074-0.019-0.148-0.037-0.222-0.056c0-0.037,0-0.074,0-0.111c0.033-0.094,0.005-0.14-0.082-0.14c-0.009,0-0.019,0-0.029,0.001 c-0.069-0.053-0.282-0.016-0.334-0.083c-0.054-0.07,0.054-0.264,0-0.333c-0.131-0.171-0.347,0.003-0.445-0.222 c-0.073-0.168,0.103-0.52,0-0.667c-0.054-0.077-0.279-0.034-0.334-0.111c0-0.074,0-0.148,0-0.222 c-0.099-0.126-0.074-0.055-0.222-0.167c-0.147-0.11-0.124-0.044-0.222-0.167c-0.109-0.137,0.053-0.125-0.111-0.25 c-0.074-0.019-0.148-0.037-0.222-0.056c-0.216-0.165-0.005-0.337-0.111-0.584c-0.097-0.226-0.313-0.052-0.445-0.222 c-0.105-0.136,0.07-0.506,0-0.667c-0.098-0.226-0.313-0.052-0.445-0.222c-0.223-0.29,0.199-0.902-0.111-1.14 c-0.247-0.189-0.268,0.043-0.334-0.306c-0.032-0.171,0-0.381,0-0.556c0-0.083,0.031-0.258,0-0.334 c-0.074-0.182-0.118-0.045-0.222-0.185c-0.114-0.154-0.111-0.233-0.111-0.482c0-0.408,0-0.815,0-1.223c0-0.778,0-1.557,0-2.335 c0-1.594,0-3.187,0-4.781c0-7.412,0-14.824,0-22.236s0-14.824,0-22.236c0-7.412,0-14.824,0-22.236s0-14.824,0-22.236 s0-14.824,0-22.236c0-7.412,0-14.824,0-22.236c0-7.412,0-14.824,0-22.236c0-3.706,0-7.412,0-11.118 c0-0.291-0.027-0.518,0.111-0.704c0.104-0.14,0.148-0.003,0.222-0.185c0.031-0.076,0-0.25,0-0.333c0-0.172-0.067-0.512,0-0.667 c0.092-0.213,0.353-0.12,0.445-0.333c0.091-0.21-0.043-0.552,0-0.778c0.038-0.204,0.099-0.225,0.175-0.225 C192.996,200.369,193.016,200.371,193.037,200.371L193.037,200.371z"></path> </g> </g> <path fill="#FFFFFF" d="M124.811,198.172c-1.924-1.418-4.129-2.671-5.938-2.671c-4.59,0.003-8.311,3.723-8.313,8.313v177.498 c0.012,4.594,3.746,8.309,8.34,8.297c1.54-0.004,3.049-0.435,4.358-1.246c1.558-0.982,151.916-86.727,153.374-88 c1.754-1.523,2.861-3.768,2.861-6.274c0-2.155-0.817-4.114-2.16-5.592C275.81,286.828,127.321,200.021,124.811,198.172z"></path> <path fill="#222221" d="M434.719,295.92c0-45.614,34.159-82.983,82.754-82.983c29.574,0,47.456,10.309,62.809,24.982l-18.104,20.862 c-12.838-11.921-26.594-19.945-44.927-19.945c-30.727,0-52.958,25.225-52.958,57.084c0,31.408,22.231,57.084,52.958,57.084 c19.709,0,32.318-8.024,46.066-20.862l18.118,18.333c-16.736,17.423-35.076,28.428-65.108,28.428 C469.559,378.903,434.719,342.452,434.719,295.92"></path> <path fill="#222221" d="M681.799,376.151V361.25c-8.253,9.858-20.862,17.423-39.195,17.423c-22.933,0-43.1-13.06-43.1-37.82 c0-26.823,20.862-39.661,49.06-39.661c14.665,0,24.065,2.063,33.471,5.044v-2.293c0-16.736-10.553-25.906-29.81-25.906 c-13.519,0-23.613,2.98-34.617,7.573l-7.558-22.245c13.297-5.961,26.357-10.08,46.073-10.08c35.764,0,53.187,18.792,53.187,51.117 v71.749H681.799z M682.486,325.493c-7.107-2.751-16.965-4.814-27.74-4.814c-17.423,0-27.733,7.1-27.733,19.257 c0,11.456,10.309,17.882,23.384,17.882c18.333,0,32.088-10.324,32.088-25.447V325.493z"></path> <path fill="#222221" d="M742.284,255.118h27.74v27.281c7.565-18.118,21.55-30.491,42.863-29.574v29.337h-1.598 c-24.301,0-41.266,15.819-41.266,47.914v46.08h-27.74V255.118z"></path> <path fill="#222221" d="M840.145,215.69h63.267c37.369,0,60.982,21.314,60.982,54.097c0,35.993-28.879,54.792-64.184,54.792h-31.866 v51.575h-28.198V215.69z M901.127,299.131c21.321,0,34.61-11.921,34.61-29.108c0-18.806-13.526-28.657-34.61-28.657h-32.783v57.765 H901.127z"></path> <rect x="991.635" y="208.81" fill="#222221" width="27.74" height="167.341"></rect> <path fill="#222221" d="M1129.624,376.151V361.25c-8.246,9.858-20.855,17.423-39.195,17.423c-22.926,0-43.1-13.06-43.1-37.82 c0-26.823,20.862-39.661,49.06-39.661c14.672,0,24.072,2.063,33.471,5.044v-2.293c0-16.736-10.546-25.906-29.81-25.906 c-13.519,0-23.606,2.98-34.61,7.573l-7.558-22.245c13.29-5.961,26.357-10.08,46.066-10.08c35.771,0,53.187,18.792,53.187,51.117 v71.749H1129.624z M1130.318,325.493c-7.107-2.751-16.965-4.814-27.74-4.814c-17.423,0-27.74,7.1-27.74,19.257 c0,11.456,10.317,17.882,23.384,17.882c18.34,0,32.096-10.324,32.096-25.447V325.493z"></path> <path fill="#222221" d="M1181.636,406.182l9.399-20.633c5.044,2.758,10.546,4.592,16.277,4.592c7.795,0,12.609-3.446,17.187-13.985 l-50.429-121.039h29.567l34.388,89.861l31.408-89.861h28.886l-48.143,124.471c-9.621,24.759-20.396,33.93-39.883,33.93 C1198.601,413.518,1190.119,410.774,1181.636,406.182"></path> <path fill="#222221" d="M1394.779,309.444v-93.758h11.921v92.612c0,37.827,20.404,59.599,54.326,59.599 c32.554,0,53.416-19.709,53.416-58.453v-93.758h11.921v92.39c0,46.066-26.823,70.596-65.789,70.596 C1422.06,378.672,1394.779,354.371,1394.779,309.444"></path> <polygon fill="#222221" points="1568.958,208.809 1580.192,208.809 1580.192,334.204 1652.636,259.245 1667.531,259.245 1616.414,311.05 1669.135,376.151 1654.922,376.151 1608.619,319.074 1580.192,347.73 1580.192,376.151 1568.958,376.151 "></polygon> <path fill="#222221" d="M1697.305,259.245h11.233v33.242c9.17-20.862,28.65-36,51.812-35.083v12.387h-1.146 c-27.052,0-50.665,20.396-50.665,58.453v47.907h-11.233V259.245z"></path> <path fill="#222221" d="M1773.622,341.77c0-24.301,20.862-38.056,51.124-38.056c16.27,0,27.503,2.063,38.737,5.044v-5.044 c0-23.613-14.443-35.757-38.508-35.757c-14.221,0-25.906,3.897-36.681,9.392l-4.134-9.858c12.838-5.961,25.447-10.087,41.495-10.087 c15.819,0,28.428,4.363,36.91,12.838c7.795,7.795,11.921,18.57,11.921,33.02v72.889h-11.004v-19.479 c-8.024,11.226-22.467,22.231-44.698,22.231C1796.999,378.902,1773.622,366.53,1773.622,341.77 M1863.712,332.371v-13.297 c-9.858-2.522-22.926-5.273-39.661-5.273c-24.752,0-38.508,10.997-38.508,27.733c0,16.965,16.041,26.823,33.923,26.823 C1843.309,368.357,1863.712,353.692,1863.712,332.371"></path> <path fill="#222221" d="M1915.03,213.395h13.984v15.367h-13.984V213.395z M1916.405,259.246h11.226v116.905h-11.226V259.246z"></path> <path fill="#222221" d="M1971.868,259.245h11.233v21.772c7.795-13.755,20.855-24.53,42.183-24.53 c29.567,0,46.761,20.182,46.761,48.143v71.52h-11.233v-69.457c0-24.065-13.526-39.883-37.139-39.883 c-22.918,0-40.571,17.416-40.571,41.717v67.623h-11.233V259.245z"></path> <path fill="#222221" d="M2104.33,317.467c0-33.922,23.843-60.975,55.479-60.975c32.776,0,53.638,26.594,53.638,61.211 c0,2.063,0,2.744-0.229,4.578h-96.967c2.063,29.115,22.926,46.08,45.844,46.08c18.118,0,30.491-8.024,40.12-18.34l7.794,6.878 c-11.914,12.838-25.898,22.008-48.365,22.008C2130.924,378.907,2104.33,354.377,2104.33,317.467 M2201.298,312.194 c-1.605-23.606-15.124-45.385-41.947-45.385c-23.155,0-41.037,19.487-43.1,45.385H2201.298z"></path> </svg> 